# xmcd CD database file
#
# Track frame offsets:
#	150
#	22800
#	48842
#	66820
#	93487
#	109875
#	135825
#	152920
#	183520
#	209382
#	230330
#	274357
#
# Disc length: 4084 seconds
#
# Revision: 0
# Processed by: cddbd v1.5.1PL2 Copyright (c) Steve Scherf et al.
# Submitted via: CDex 1.60beta1
#
DISCID=9f0ff20c
DTITLE=Fossa Magna - Declaration of the Independence of the imagination and the Rights of Man to His Own Madness Ⅰ
DYEAR=2006
DGENRE=Jazz
TTITLE0=Megamouth
TTITLE1=Down stroke bop
TTITLE2=E-17
TTITLE3=70's violence movie revival part1
TTITLE4=Robert plays on the beach
TTITLE5=Tuesday's shock style
TTITLE6=Propaganda jazz
TTITLE7=11th count one, two, three, fxxx
TTITLE8=You better to get the RAMONES soul
TTITLE9=My PC's folt
TTITLE10=70's violence movie revival part2
TTITLE11=Iran (Invitation of our irony)
EXTD=YEAR: 2006
EXTT0=
EXTT1=
EXTT2=
EXTT3=
EXTT4=
EXTT5=
EXTT6=
EXTT7=
EXTT8=
EXTT9=
EXTT10=
EXTT11=
PLAYORDER=
